#!OML:ASF F:\VICON\USERDATA\INSTALL\rory3\rory3.ASF
:FULLY-SPECIFIED
:DEGREES
737
root 1.43064 17.0418 -10.686 21.6582 -28.0894 351.596
lowerback -7.20969 2.75879 7.57483
upperback -8.98847 3.42477 3.69389
thorax -5.19817 1.34 -0.254936
lowerneck -12.6417 7.60758 5.50114
upperneck 39.9928 13.7305 -9.22418
head 18.2776 5.11056 -2.66639
rclavicle -1.14798e-014 -4.85035e-014
rhumerus -78.1358 -42.2562 35.7071
rradius 18.745
rwrist 4.51478
rhand -32.0753 21.1627
rfingers 7.12502
rthumb -5.32146 -8.75045
lclavicle -1.14798e-014 -4.85035e-014
lhumerus -55.4751 28.2249 8.00372
lradius 27.5511
lwrist -41.363
lhand -32.4641 4.93525
lfingers 7.12502
lthumb -5.69678 34.8387
rfemur -23.309 -13.0486 36.5767
rtibia 45.6957
rfoot -1.25222 -40.6702
rtoes -25.4208
lfemur -42.6524 13.4693 -28.144
ltibia 39.0292
lfoot -21.4142 25.1789
ltoes -6.88527
738
root 1.40104 16.9903 -10.5956 21.3664 -26.7913 351.534
lowerback -7.22663 2.79658 7.62512
upperback -8.92808 3.47672 3.77209
thorax -5.12404 1.37227 -0.197785
lowerneck -12.2813 7.13719 4.97379
upperneck 40.301 13.0226 -8.81357
head 18.1646 4.8097 -2.55026
rclavicle 8.54774e-015 2.46493e-014
rhumerus -79.6838 -43.175 37.0775
rradius 18.7691
rwrist 4.69298
rhand -31.8771 21.1597
rfingers 7.12502
rthumb -5.13005 -8.75816
lclavicle 8.54774e-015 2.46493e-014
lhumerus -55.643 27.0319 9.89678
lradius 27.8616
lwrist -39.2074
lhand -30.6518 10.2575
lfingers 7.12502
lthumb -3.94692 40.2006
rfemur -23.7492 -13.1715 36.2518
rtibia 47.7049
rfoot 3.0839 -38.9314
rtoes -29.3036
lfemur -42.3868 13.2607 -28.0851
ltibia 39.5524
lfoot -22.2223 24.601
ltoes -4.80462
739
root 1.37524 16.9288 -10.5117 21.0697 -25.653 351.507
lowerback -7.20186 2.85428 7.62664
upperback -8.80562 3.55679 3.82612
thorax -5.0046 1.42334 -0.139344
lowerneck -12.0631 6.72497 4.58232
upperneck 40.5 12.3968 -8.51213
head 18.0718 4.54561 -2.47909
rclavicle -6.91274e-014 -6.04305e-014
rhumerus -81.8842 -44.3547 39.2556
rradius 18.7757
rwrist 5.21653
rhand -31.459 21.8306
rfingers 7.12502
rthumb -4.72637 -8.0967
lclavicle -6.91274e-014 -6.04305e-014
lhumerus -58.4444 29.7723 5.52901
lradius 25.3113
lwrist -45.7006
lhand -33.5311 3.87178
lfingers 7.12502
lthumb -6.72693 33.7449
rfemur -24.3641 -12.9107 35.7598
rtibia 49.9211
rfoot 4.41437 -37.4312
rtoes -27.8251
lfemur -42.1454 13.0954 -28.1272
ltibia 40.0162
lfoot -23.0452 24.2714
ltoes -2.87566
740
root 1.35012 16.8977 -10.4294 20.7531 -24.619 351.668
lowerback -7.04498 2.89892 7.42915
upperback -8.76489 3.6457 3.808
thorax -5.05057 1.48142 -0.0541735
lowerneck -12.0064 6.30061 4.16289
upperneck 40.8273 11.7468 -8.14309
head 18.0941 4.26488 -2.37307
rclavicle 1.04362e-015 -3.10104e-014
rhumerus -83.0478 -45.0928 39.8586
rradius 18.8138
rwrist 4.91177
rhand -31.4253 22.2849
rfingers 7.12502
rthumb -4.69382 -7.64311
lclavicle 1.04362e-015 -3.10104e-014
lhumerus -59.5555 29.7879 5.29135
lradius 24.7639
lwrist -46.3966
lhand -33.4909 5.3327
lfingers 7.12502
lthumb -6.68813 35.2071
rfemur -25.1238 -12.6558 34.954
rtibia 52.216
rfoot 3.20269 -36.3497
rtoes -18.3708
lfemur -41.8333 12.9446 -28.3402
ltibia 40.2574
lfoot -23.8637 23.9582
ltoes -1.60551
741
root 1.33039 16.8627 -10.3516 20.5009 -23.4141 351.607
lowerback -6.81521 2.9133 7.58394
upperback -8.71253 3.68969 3.81055
thorax -5.11405 1.49661 -0.145244
lowerneck -11.7944 5.86966 3.79224
upperneck 40.995 11.0784 -7.84435
head 17.9973 3.98456 -2.30838
rclavicle 4.77083e-015 -1.66979e-014
rhumerus -84.5561 -45.9488 40.939
rradius 18.7756
rwrist 5.02287
rhand -31.675 22.2978
rfingers 7.12502
rthumb -4.93491 -7.6247
lclavicle 4.77083e-015 -1.66979e-014
lhumerus -60.3527 29.397 5.72826
lradius 24.4407
lwrist -46.425
lhand -33.2889 5.67188
lfingers 7.12502
lthumb -6.49309 35.5523
rfemur -26.2992 -13.0416 34.5947
rtibia 54.4676
rfoot 12.359 -33.6242
rtoes -23.1263
lfemur -41.4845 12.8072 -28.3294
ltibia 40.4072
lfoot -24.5625 23.6181
ltoes -1.00501
742
root 1.3134 16.8224 -10.2738 20.1144 -22.2577 351.663
lowerback -6.62844 2.89465 7.73392
upperback -8.48728 3.67141 3.74779
thorax -4.96491 1.48901 -0.299825
lowerneck -11.6506 5.46322 3.50264
upperneck 40.9136 10.4293 -7.62764
head 17.7946 3.71749 -2.27867
rclavicle 4.18939e-014 2.54444e-014
rhumerus -86.1698 -46.9636 41.8211
rradius 18.8174
rwrist 4.9607
rhand -31.8909 22.224
rfingers 7.12502
rthumb -5.14337 -7.69358
lclavicle 4.18939e-014 2.54444e-014
lhumerus -61.282 29.5 5.8217
lradius 23.9863
lwrist -46.8328
lhand -33.6767 5.08854
lfingers 7.12502
lthumb -6.86745 34.9572
rfemur -27.2135 -13.0956 33.8789
rtibia 56.6601
rfoot 14.8278 -31.6833
rtoes -16.4883
lfemur -40.919 12.8355 -28.546
ltibia 40.4424
lfoot -25.012 23.4264
ltoes -1.64266
743
root 1.29726 16.7798 -10.1974 19.6716 -21.2689 351.77
lowerback -6.24819 2.87449 7.70193
upperback -8.33977 3.68578 3.72506
thorax -5.01761 1.50142 -0.322177
lowerneck -11.4173 5.08559 3.26994
upperneck 40.8971 9.82043 -7.42032
head 17.6229 3.47403 -2.25848
rclavicle -4.61677e-014 -5.96354e-014
rhumerus -86.9333 -47.7643 41.5692
rradius 18.9197
rwrist 4.2955
rhand -32.0626 22.2539
rfingers 7.12502
rthumb -5.30915 -7.65961
lclavicle -4.61677e-014 -5.96354e-014
lhumerus -62.3417 29.4167 5.91803
lradius 23.5158
lwrist -47.366
lhand -33.8746 5.5876
lfingers 7.12502
lthumb -7.05852 35.4499
rfemur -27.893 -12.769 32.8311
rtibia 58.7952
rfoot 12.1986 -30.9383
rtoes 2.85156
lfemur -40.3393 12.9968 -28.8423
ltibia 40.5188
lfoot -25.7247 23.265
ltoes -2.69247
744
root 1.2859 16.7362 -10.1217 19.341 -20.3124 351.649
lowerback -5.76824 2.85695 7.8939
upperback -8.34843 3.72187 3.77847
thorax -5.29086 1.50337 -0.393625
lowerneck -10.8732 4.74456 3.21278
upperneck 40.9732 9.27474 -7.3347
head 17.458 3.27262 -2.32321
rclavicle 3.17559e-014 -5.40694e-014
rhumerus -86.9933 -48.3772 40.5244
rradius 19.0052
rwrist 3.26047
rhand -32.3174 22.4598
rfingers 7.12502
rthumb -5.55515 -7.44742
lclavicle 3.17559e-014 -5.40694e-014
lhumerus -63.2783 28.5197 6.65414
lradius 23.1302
lwrist -47.1267
lhand -33.8642 5.99521
lfingers 7.12502
lthumb -7.04849 35.8578
rfemur -29.2738 -13.4554 32.5859
rtibia 60.7266
rfoot 22.3875 -22.6963
rtoes -16.7459
lfemur -39.7923 12.9989 -28.8167
ltibia 40.6352
lfoot -26.8743 22.9513
ltoes -1.60954
745
root 1.28003 16.6923 -10.0481 19.0168 -19.2995 351.248
lowerback -5.24744 2.81172 8.51685
upperback -8.22306 3.71137 3.86773
thorax -5.43057 1.46453 -0.663815
lowerneck -10.5327 4.50193 3.23296
upperneck 40.9751 8.85942 -7.25746
head 17.3234 3.12982 -2.37207
rclavicle 1.64494e-014 1.35174e-014
rhumerus -86.8855 -49.1988 39.1875
rradius 18.9834
rwrist 2.09183
rhand -32.3782 22.8273
rfingers 7.12502
rthumb -5.61386 -7.07834
lclavicle 1.64494e-014 1.35174e-014
lhumerus -64.2781 27.9648 7.15451
lradius 22.5622
lwrist -47.4238
lhand -33.863 6.25798
lfingers 7.12502
lthumb -7.0473 36.1207
rfemur -30.3418 -13.8868 32.4197
rtibia 62.5345
rfoot 23.819 -18.5138
rtoes -23.357
lfemur -39.1983 12.8458 -28.3855
ltibia 40.8745
lfoot -28.0383 22.7038
ltoes 0.011859
746
root 1.2685 16.6528 -9.98146 18.6335 -18.4859 351.079
lowerback -4.71616 2.77169 8.74376
upperback -8.00171 3.71304 3.94764
thorax -5.48787 1.45953 -0.726563
lowerneck -10.3754 4.25574 3.03821
upperneck 40.8734 8.42739 -7.02503
head 17.1518 2.96341 -2.30424
rclavicle 3.62782e-014 -2.94201e-014
rhumerus -86.4125 -50.0959 37.3209
rradius 19.0438
rwrist 0.494916
rhand -32.2389 23.2374
rfingers 7.12502
rthumb -5.47939 -6.67177
lclavicle 3.62782e-014 -2.94201e-014
lhumerus -65.0245 27.5787 8.17099
lradius 22.0162
lwrist -47.5584
lhand -33.5582 7.72193
lfingers 7.12502
lthumb -6.75309 37.5942
rfemur -31.3906 -13.7879 31.9539
rtibia 64.2358
rfoot 21.6679 -18.5074
rtoes -24.937
lfemur -38.7752 12.6216 -28.0771
ltibia 41.2692
lfoot -28.9699 22.6952
ltoes 0.503423
